<svg width="211" height="62" viewBox="0 0 211 62" fill="none" xmlns="http://www.w3.org/2000/svg">
<path d="M47.4658 31.9449V8.51364C47.4658 7.67771 46.7881 7 45.9522 7H5.39862C4.56269 7 3.88498 7.67771 3.88498 8.51364V33.8129C3.15481 33.9192 2.44097 34.2027 1.80949 34.6715C-0.18125 36.0831 -0.652092 39.2422 1.01543 41.1904L7.83316 49.4556C12.0534 54.3948 16.5365 55 23.2011 55C28.9203 55 31.4773 55.0252 36.4617 53.8894L41.3152 52.7286C42.1022 53.8276 43.3516 54.5395 44.7561 54.5395H47.147C49.5226 54.5395 51.4554 52.5035 51.4554 50.0008V36.47C51.4555 34.0804 49.693 32.1175 47.4658 31.9449ZM40.6623 35.0586L38.6456 34.0343C35.3296 32.3605 31.4957 32.2985 28.1274 33.8645C27.2084 34.226 25.2041 35.4387 24.1644 35.3982H17.1661C14.8448 35.3982 12.9562 37.2867 12.9562 39.6081V40.7119C12.9432 40.6982 12.9296 40.6852 12.9168 40.6713L7.91923 35.2467C7.61681 34.9184 7.27704 34.6438 6.91236 34.4234V19.4062H19.2993V24.9548C19.2993 25.7907 19.977 26.4684 20.8129 26.4684H30.364C31.2 26.4684 31.8777 25.7907 31.8777 24.9548V19.4062H44.4386V31.9448C42.6701 32.0815 41.1954 33.3467 40.6623 35.0586ZM22.3264 19.4062H28.8503V23.4411H22.3264V19.4062ZM44.4385 16.3789H31.8777V10.0273H44.4386V16.3789H44.4385ZM28.8504 10.0273V16.379H22.3265V10.0273H28.8504ZM19.2992 10.0273V16.379H6.91226V10.0273H19.2992ZM35.7591 50.9447C31.1547 51.9993 28.3816 51.9566 23.2554 51.9566C16.999 51.9566 13.9761 51.8555 10.1686 47.5291L3.35087 39.264C2.16499 37.7198 4.31294 35.8968 5.69277 37.2977L10.6903 42.7223C12.0111 44.116 13.6732 44.883 15.7217 44.9281H29.5774C30.4133 44.9281 31.091 44.2504 31.091 43.4145C31.091 42.5785 30.4133 41.9008 29.5774 41.9008H15.9834V39.6079C15.9834 38.9558 16.5139 38.4252 17.166 38.4252H24.1643C25.7409 38.5381 28.0165 37.2217 29.4036 36.6095C31.9263 35.4365 34.7978 35.4829 37.278 36.7348L40.448 38.3449V49.8231L35.7591 50.9447ZM48.4282 50.0007C48.4282 50.8341 47.8535 51.5121 47.1471 51.5121H44.7562C44.0498 51.5121 43.4753 50.8341 43.4753 50.0007V36.47C43.4753 35.6366 44.0499 34.9585 44.7562 34.9585H47.1471C47.8535 34.9585 48.4282 35.6365 48.4282 36.47V50.0007Z" fill="#262626"/>
<path d="M81.4556 8.04V10.3H75.6356V13.88H80.0956V16.1H75.6356V22H72.8356V8.04H81.4556ZM86.241 12.64C86.601 12.0533 87.0677 11.5933 87.641 11.26C88.2277 10.9267 88.8944 10.76 89.641 10.76V13.7H88.901C88.021 13.7 87.3544 13.9067 86.901 14.32C86.461 14.7333 86.241 15.4533 86.241 16.48V22H83.441V10.92H86.241V12.64ZM101.827 16.22C101.827 16.62 101.8 16.98 101.747 17.3H93.647C93.7136 18.1 93.9936 18.7267 94.487 19.18C94.9803 19.6333 95.587 19.86 96.307 19.86C97.347 19.86 98.087 19.4133 98.527 18.52H101.547C101.227 19.5867 100.614 20.4667 99.707 21.16C98.8003 21.84 97.687 22.18 96.367 22.18C95.3003 22.18 94.3403 21.9467 93.487 21.48C92.647 21 91.987 20.3267 91.507 19.46C91.0403 18.5933 90.807 17.5933 90.807 16.46C90.807 15.3133 91.0403 14.3067 91.507 13.44C91.9736 12.5733 92.627 11.9067 93.467 11.44C94.307 10.9733 95.2736 10.74 96.367 10.74C97.4203 10.74 98.3603 10.9667 99.187 11.42C100.027 11.8733 100.674 12.52 101.127 13.36C101.594 14.1867 101.827 15.14 101.827 16.22ZM98.927 15.42C98.9136 14.7 98.6536 14.1267 98.147 13.7C97.6403 13.26 97.0203 13.04 96.287 13.04C95.5936 13.04 95.007 13.2533 94.527 13.68C94.0603 14.0933 93.7736 14.6733 93.667 15.42H98.927ZM114.171 16.22C114.171 16.62 114.144 16.98 114.091 17.3H105.991C106.057 18.1 106.337 18.7267 106.831 19.18C107.324 19.6333 107.931 19.86 108.651 19.86C109.691 19.86 110.431 19.4133 110.871 18.52H113.891C113.571 19.5867 112.957 20.4667 112.051 21.16C111.144 21.84 110.031 22.18 108.711 22.18C107.644 22.18 106.684 21.9467 105.831 21.48C104.991 21 104.331 20.3267 103.851 19.46C103.384 18.5933 103.151 17.5933 103.151 16.46C103.151 15.3133 103.384 14.3067 103.851 13.44C104.317 12.5733 104.971 11.9067 105.811 11.44C106.651 10.9733 107.617 10.74 108.711 10.74C109.764 10.74 110.704 10.9667 111.531 11.42C112.371 11.8733 113.017 12.52 113.471 13.36C113.937 14.1867 114.171 15.14 114.171 16.22ZM111.271 15.42C111.257 14.7 110.997 14.1267 110.491 13.7C109.984 13.26 109.364 13.04 108.631 13.04C107.937 13.04 107.351 13.2533 106.871 13.68C106.404 14.0933 106.117 14.6733 106.011 15.42H111.271ZM125.8 22.14C124.827 22.14 123.947 21.9733 123.16 21.64C122.387 21.3067 121.773 20.8267 121.32 20.2C120.867 19.5733 120.633 18.8333 120.62 17.98H123.62C123.66 18.5533 123.86 19.0067 124.22 19.34C124.593 19.6733 125.1 19.84 125.74 19.84C126.393 19.84 126.907 19.6867 127.28 19.38C127.653 19.06 127.84 18.6467 127.84 18.14C127.84 17.7267 127.713 17.3867 127.46 17.12C127.207 16.8533 126.887 16.6467 126.5 16.5C126.127 16.34 125.607 16.1667 124.94 15.98C124.033 15.7133 123.293 15.4533 122.72 15.2C122.16 14.9333 121.673 14.54 121.26 14.02C120.86 13.4867 120.66 12.78 120.66 11.9C120.66 11.0733 120.867 10.3533 121.28 9.74C121.693 9.12667 122.273 8.66 123.02 8.34C123.767 8.00667 124.62 7.84 125.58 7.84C127.02 7.84 128.187 8.19333 129.08 8.9C129.987 9.59333 130.487 10.5667 130.58 11.82H127.5C127.473 11.34 127.267 10.9467 126.88 10.64C126.507 10.32 126.007 10.16 125.38 10.16C124.833 10.16 124.393 10.3 124.06 10.58C123.74 10.86 123.58 11.2667 123.58 11.8C123.58 12.1733 123.7 12.4867 123.94 12.74C124.193 12.98 124.5 13.18 124.86 13.34C125.233 13.4867 125.753 13.66 126.42 13.86C127.327 14.1267 128.067 14.3933 128.64 14.66C129.213 14.9267 129.707 15.3267 130.12 15.86C130.533 16.3933 130.74 17.0933 130.74 17.96C130.74 18.7067 130.547 19.4 130.16 20.04C129.773 20.68 129.207 21.1933 128.46 21.58C127.713 21.9533 126.827 22.14 125.8 22.14ZM139.408 10.76C140.248 10.76 140.994 10.9467 141.648 11.32C142.301 11.68 142.808 12.22 143.168 12.94C143.541 13.6467 143.728 14.5 143.728 15.5V22H140.928V15.88C140.928 15 140.708 14.3267 140.268 13.86C139.828 13.38 139.228 13.14 138.468 13.14C137.694 13.14 137.081 13.38 136.628 13.86C136.188 14.3267 135.968 15 135.968 15.88V22H133.168V7.2H135.968V12.3C136.328 11.82 136.808 11.4467 137.408 11.18C138.008 10.9 138.674 10.76 139.408 10.76ZM147.81 9.6C147.317 9.6 146.904 9.44667 146.57 9.14C146.25 8.82 146.09 8.42667 146.09 7.96C146.09 7.49333 146.25 7.10667 146.57 6.8C146.904 6.48 147.317 6.32 147.81 6.32C148.304 6.32 148.71 6.48 149.03 6.8C149.364 7.10667 149.53 7.49333 149.53 7.96C149.53 8.42667 149.364 8.82 149.03 9.14C148.71 9.44667 148.304 9.6 147.81 9.6ZM149.19 10.92V22H146.39V10.92H149.19ZM154.757 12.52C155.117 12.0133 155.61 11.5933 156.237 11.26C156.877 10.9133 157.603 10.74 158.417 10.74C159.363 10.74 160.217 10.9733 160.977 11.44C161.75 11.9067 162.357 12.5733 162.797 13.44C163.25 14.2933 163.477 15.2867 163.477 16.42C163.477 17.5533 163.25 18.56 162.797 19.44C162.357 20.3067 161.75 20.98 160.977 21.46C160.217 21.94 159.363 22.18 158.417 22.18C157.603 22.18 156.883 22.0133 156.257 21.68C155.643 21.3467 155.143 20.9267 154.757 20.42V27.28H151.957V10.92H154.757V12.52ZM160.617 16.42C160.617 15.7533 160.477 15.18 160.197 14.7C159.93 14.2067 159.57 13.8333 159.117 13.58C158.677 13.3267 158.197 13.2 157.677 13.2C157.17 13.2 156.69 13.3333 156.237 13.6C155.797 13.8533 155.437 14.2267 155.157 14.72C154.89 15.2133 154.757 15.7933 154.757 16.46C154.757 17.1267 154.89 17.7067 155.157 18.2C155.437 18.6933 155.797 19.0733 156.237 19.34C156.69 19.5933 157.17 19.72 157.677 19.72C158.197 19.72 158.677 19.5867 159.117 19.32C159.57 19.0533 159.93 18.6733 160.197 18.18C160.477 17.6867 160.617 17.1 160.617 16.42ZM168.311 12.52C168.671 12.0133 169.165 11.5933 169.791 11.26C170.431 10.9133 171.158 10.74 171.971 10.74C172.918 10.74 173.771 10.9733 174.531 11.44C175.305 11.9067 175.911 12.5733 176.351 13.44C176.805 14.2933 177.031 15.2867 177.031 16.42C177.031 17.5533 176.805 18.56 176.351 19.44C175.911 20.3067 175.305 20.98 174.531 21.46C173.771 21.94 172.918 22.18 171.971 22.18C171.158 22.18 170.438 22.0133 169.811 21.68C169.198 21.3467 168.698 20.9267 168.311 20.42V27.28H165.511V10.92H168.311V12.52ZM174.171 16.42C174.171 15.7533 174.031 15.18 173.751 14.7C173.485 14.2067 173.125 13.8333 172.671 13.58C172.231 13.3267 171.751 13.2 171.231 13.2C170.725 13.2 170.245 13.3333 169.791 13.6C169.351 13.8533 168.991 14.2267 168.711 14.72C168.445 15.2133 168.311 15.7933 168.311 16.46C168.311 17.1267 168.445 17.7067 168.711 18.2C168.991 18.6933 169.351 19.0733 169.791 19.34C170.245 19.5933 170.725 19.72 171.231 19.72C171.751 19.72 172.231 19.5867 172.671 19.32C173.125 19.0533 173.485 18.6733 173.751 18.18C174.031 17.6867 174.171 17.1 174.171 16.42ZM180.486 9.6C179.993 9.6 179.579 9.44667 179.246 9.14C178.926 8.82 178.766 8.42667 178.766 7.96C178.766 7.49333 178.926 7.10667 179.246 6.8C179.579 6.48 179.993 6.32 180.486 6.32C180.979 6.32 181.386 6.48 181.706 6.8C182.039 7.10667 182.206 7.49333 182.206 7.96C182.206 8.42667 182.039 8.82 181.706 9.14C181.386 9.44667 180.979 9.6 180.486 9.6ZM181.866 10.92V22H179.066V10.92H181.866ZM190.772 10.76C192.092 10.76 193.159 11.18 193.972 12.02C194.786 12.8467 195.192 14.0067 195.192 15.5V22H192.392V15.88C192.392 15 192.172 14.3267 191.732 13.86C191.292 13.38 190.692 13.14 189.932 13.14C189.159 13.14 188.546 13.38 188.092 13.86C187.652 14.3267 187.432 15 187.432 15.88V22H184.632V10.92H187.432V12.3C187.806 11.82 188.279 11.4467 188.852 11.18C189.439 10.9 190.079 10.76 190.772 10.76ZM202.195 10.74C203.022 10.74 203.748 10.9067 204.375 11.24C205.002 11.56 205.495 11.98 205.855 12.5V10.92H208.675V22.08C208.675 23.1067 208.468 24.02 208.055 24.82C207.642 25.6333 207.022 26.2733 206.195 26.74C205.368 27.22 204.368 27.46 203.195 27.46C201.622 27.46 200.328 27.0933 199.315 26.36C198.315 25.6267 197.748 24.6267 197.615 23.36H200.395C200.542 23.8667 200.855 24.2667 201.335 24.56C201.828 24.8667 202.422 25.02 203.115 25.02C203.928 25.02 204.588 24.7733 205.095 24.28C205.602 23.8 205.855 23.0667 205.855 22.08V20.36C205.495 20.88 204.995 21.3133 204.355 21.66C203.728 22.0067 203.008 22.18 202.195 22.18C201.262 22.18 200.408 21.94 199.635 21.46C198.862 20.98 198.248 20.3067 197.795 19.44C197.355 18.56 197.135 17.5533 197.135 16.42C197.135 15.3 197.355 14.3067 197.795 13.44C198.248 12.5733 198.855 11.9067 199.615 11.44C200.388 10.9733 201.248 10.74 202.195 10.74ZM205.855 16.46C205.855 15.78 205.722 15.2 205.455 14.72C205.188 14.2267 204.828 13.8533 204.375 13.6C203.922 13.3333 203.435 13.2 202.915 13.2C202.395 13.2 201.915 13.3267 201.475 13.58C201.035 13.8333 200.675 14.2067 200.395 14.7C200.128 15.18 199.995 15.7533 199.995 16.42C199.995 17.0867 200.128 17.6733 200.395 18.18C200.675 18.6733 201.035 19.0533 201.475 19.32C201.928 19.5867 202.408 19.72 202.915 19.72C203.435 19.72 203.922 19.5933 204.375 19.34C204.828 19.0733 205.188 18.7 205.455 18.22C205.722 17.7267 205.855 17.14 205.855 16.46Z" fill="#262626"/>
<path d="M77.7276 54.112C76.6929 54.112 75.7382 53.872 74.8636 53.392C73.9996 52.9013 73.3116 52.224 72.7996 51.36C72.2982 50.4853 72.0476 49.504 72.0476 48.416C72.0476 47.328 72.2982 46.352 72.7996 45.488C73.3116 44.624 73.9996 43.952 74.8636 43.472C75.7382 42.9813 76.6929 42.736 77.7276 42.736C78.7729 42.736 79.7276 42.9813 80.5916 43.472C81.4662 43.952 82.1542 44.624 82.6556 45.488C83.1569 46.352 83.4076 47.328 83.4076 48.416C83.4076 49.504 83.1569 50.4853 82.6556 51.36C82.1542 52.224 81.4662 52.9013 80.5916 53.392C79.7276 53.872 78.7729 54.112 77.7276 54.112ZM77.7276 52.528C78.4636 52.528 79.1196 52.3627 79.6956 52.032C80.2716 51.6907 80.7196 51.2107 81.0396 50.592C81.3702 49.9627 81.5356 49.2373 81.5356 48.416C81.5356 47.5947 81.3702 46.8747 81.0396 46.256C80.7196 45.6373 80.2716 45.1627 79.6956 44.832C79.1196 44.5013 78.4636 44.336 77.7276 44.336C76.9916 44.336 76.3356 44.5013 75.7596 44.832C75.1836 45.1627 74.7302 45.6373 74.3996 46.256C74.0796 46.8747 73.9196 47.5947 73.9196 48.416C73.9196 49.2373 74.0796 49.9627 74.3996 50.592C74.7302 51.2107 75.1836 51.6907 75.7596 52.032C76.3356 52.3627 76.9916 52.528 77.7276 52.528ZM87.0264 46.464C87.2931 46.016 87.6451 45.6693 88.0824 45.424C88.5304 45.168 89.0584 45.04 89.6664 45.04V46.928H89.2024C88.4878 46.928 87.9438 47.1093 87.5704 47.472C87.2078 47.8347 87.0264 48.464 87.0264 49.36V54H85.2024V45.184H87.0264V46.464ZM90.7351 49.552C90.7351 48.6667 90.9164 47.8827 91.2791 47.2C91.6524 46.5173 92.1537 45.9893 92.7831 45.616C93.4231 45.232 94.1324 45.04 94.9111 45.04C95.4871 45.04 96.0524 45.168 96.6071 45.424C97.1724 45.6693 97.6204 46 97.9511 46.416V42.16H99.7911V54H97.9511V52.672C97.6524 53.0987 97.2364 53.4507 96.7031 53.728C96.1804 54.0053 95.5777 54.144 94.8951 54.144C94.1271 54.144 93.4231 53.952 92.7831 53.568C92.1537 53.1733 91.6524 52.6293 91.2791 51.936C90.9164 51.232 90.7351 50.4373 90.7351 49.552ZM97.9511 49.584C97.9511 48.976 97.8231 48.448 97.5671 48C97.3217 47.552 96.9964 47.2107 96.5911 46.976C96.1857 46.7413 95.7484 46.624 95.2791 46.624C94.8097 46.624 94.3724 46.7413 93.9671 46.976C93.5617 47.2 93.2311 47.536 92.9751 47.984C92.7297 48.4213 92.6071 48.944 92.6071 49.552C92.6071 50.16 92.7297 50.6933 92.9751 51.152C93.2311 51.6107 93.5617 51.9627 93.9671 52.208C94.3831 52.4427 94.8204 52.56 95.2791 52.56C95.7484 52.56 96.1857 52.4427 96.5911 52.208C96.9964 51.9733 97.3217 51.632 97.5671 51.184C97.8231 50.7253 97.9511 50.192 97.9511 49.584ZM110.267 49.376C110.267 49.7067 110.245 50.0053 110.203 50.272H103.467C103.52 50.976 103.781 51.5413 104.251 51.968C104.72 52.3947 105.296 52.608 105.979 52.608C106.96 52.608 107.653 52.1973 108.059 51.376H110.027C109.76 52.1867 109.275 52.8533 108.571 53.376C107.877 53.888 107.013 54.144 105.979 54.144C105.136 54.144 104.379 53.9573 103.707 53.584C103.045 53.2 102.523 52.6667 102.139 51.984C101.765 51.2907 101.579 50.4907 101.579 49.584C101.579 48.6773 101.76 47.8827 102.123 47.2C102.496 46.5067 103.013 45.9733 103.675 45.6C104.347 45.2267 105.115 45.04 105.979 45.04C106.811 45.04 107.552 45.2213 108.203 45.584C108.853 45.9467 109.36 46.4587 109.723 47.12C110.085 47.7707 110.267 48.5227 110.267 49.376ZM108.363 48.8C108.352 48.128 108.112 47.5893 107.643 47.184C107.173 46.7787 106.592 46.576 105.899 46.576C105.269 46.576 104.731 46.7787 104.283 47.184C103.835 47.5787 103.568 48.1173 103.483 48.8H108.363ZM113.886 46.464C114.152 46.016 114.504 45.6693 114.942 45.424C115.39 45.168 115.918 45.04 116.526 45.04V46.928H116.062C115.347 46.928 114.803 47.1093 114.43 47.472C114.067 47.8347 113.886 48.464 113.886 49.36V54H112.062V45.184H113.886V46.464ZM126.183 54.144C125.351 54.144 124.599 53.9573 123.927 53.584C123.255 53.2 122.727 52.6667 122.343 51.984C121.959 51.2907 121.767 50.4907 121.767 49.584C121.767 48.688 121.964 47.8933 122.359 47.2C122.753 46.5067 123.292 45.9733 123.975 45.6C124.657 45.2267 125.42 45.04 126.263 45.04C127.105 45.04 127.868 45.2267 128.551 45.6C129.233 45.9733 129.772 46.5067 130.167 47.2C130.561 47.8933 130.759 48.688 130.759 49.584C130.759 50.48 130.556 51.2747 130.151 51.968C129.745 52.6613 129.191 53.2 128.487 53.584C127.793 53.9573 127.025 54.144 126.183 54.144ZM126.183 52.56C126.652 52.56 127.089 52.448 127.495 52.224C127.911 52 128.247 51.664 128.503 51.216C128.759 50.768 128.887 50.224 128.887 49.584C128.887 48.944 128.764 48.4053 128.519 47.968C128.273 47.52 127.948 47.184 127.543 46.96C127.137 46.736 126.7 46.624 126.231 46.624C125.761 46.624 125.324 46.736 124.919 46.96C124.524 47.184 124.209 47.52 123.975 47.968C123.74 48.4053 123.623 48.944 123.623 49.584C123.623 50.5333 123.863 51.2693 124.343 51.792C124.833 52.304 125.447 52.56 126.183 52.56ZM135.97 52.368L138.466 45.184H140.402L137.042 54H134.866L131.522 45.184H133.474L135.97 52.368ZM149.861 49.376C149.861 49.7067 149.839 50.0053 149.797 50.272H143.061C143.114 50.976 143.375 51.5413 143.845 51.968C144.314 52.3947 144.89 52.608 145.573 52.608C146.554 52.608 147.247 52.1973 147.653 51.376H149.621C149.354 52.1867 148.869 52.8533 148.165 53.376C147.471 53.888 146.607 54.144 145.573 54.144C144.73 54.144 143.973 53.9573 143.301 53.584C142.639 53.2 142.117 52.6667 141.733 51.984C141.359 51.2907 141.173 50.4907 141.173 49.584C141.173 48.6773 141.354 47.8827 141.717 47.2C142.09 46.5067 142.607 45.9733 143.269 45.6C143.941 45.2267 144.709 45.04 145.573 45.04C146.405 45.04 147.146 45.2213 147.797 45.584C148.447 45.9467 148.954 46.4587 149.317 47.12C149.679 47.7707 149.861 48.5227 149.861 49.376ZM147.957 48.8C147.946 48.128 147.706 47.5893 147.237 47.184C146.767 46.7787 146.186 46.576 145.493 46.576C144.863 46.576 144.325 46.7787 143.877 47.184C143.429 47.5787 143.162 48.1173 143.077 48.8H147.957ZM153.48 46.464C153.746 46.016 154.098 45.6693 154.536 45.424C154.984 45.168 155.512 45.04 156.12 45.04V46.928H155.656C154.941 46.928 154.397 47.1093 154.024 47.472C153.661 47.8347 153.48 48.464 153.48 49.36V54H151.656V45.184H153.48V46.464ZM161.472 44V42.336H164.8V54H162.96V44H161.472ZM174.826 43.904H169.466V47.088C169.69 46.7893 170.021 46.5387 170.458 46.336C170.906 46.1333 171.381 46.032 171.882 46.032C172.778 46.032 173.504 46.224 174.058 46.608C174.624 46.992 175.024 47.4773 175.258 48.064C175.504 48.6507 175.626 49.2693 175.626 49.92C175.626 50.7093 175.472 51.4133 175.162 52.032C174.864 52.64 174.41 53.12 173.802 53.472C173.205 53.824 172.469 54 171.594 54C170.432 54 169.498 53.712 168.794 53.136C168.09 52.56 167.669 51.7973 167.53 50.848H169.306C169.424 51.3493 169.685 51.7493 170.09 52.048C170.496 52.336 171.002 52.48 171.61 52.48C172.368 52.48 172.933 52.2507 173.306 51.792C173.69 51.3333 173.882 50.7253 173.882 49.968C173.882 49.2 173.69 48.6133 173.306 48.208C172.922 47.792 172.357 47.584 171.61 47.584C171.088 47.584 170.645 47.7173 170.282 47.984C169.93 48.24 169.674 48.592 169.514 49.04H167.786V42.304H174.826V43.904ZM177.525 48.016C177.525 46.1707 177.834 44.7307 178.453 43.696C179.082 42.6507 180.16 42.128 181.685 42.128C183.21 42.128 184.282 42.6507 184.901 43.696C185.53 44.7307 185.845 46.1707 185.845 48.016C185.845 49.8827 185.53 51.344 184.901 52.4C184.282 53.4453 183.21 53.968 181.685 53.968C180.16 53.968 179.082 53.4453 178.453 52.4C177.834 51.344 177.525 49.8827 177.525 48.016ZM184.053 48.016C184.053 47.152 183.994 46.4213 183.877 45.824C183.77 45.2267 183.546 44.7413 183.205 44.368C182.864 43.984 182.357 43.792 181.685 43.792C181.013 43.792 180.506 43.984 180.165 44.368C179.824 44.7413 179.594 45.2267 179.477 45.824C179.37 46.4213 179.317 47.152 179.317 48.016C179.317 48.912 179.37 49.664 179.477 50.272C179.584 50.88 179.808 51.3707 180.149 51.744C180.501 52.1173 181.013 52.304 181.685 52.304C182.357 52.304 182.864 52.1173 183.205 51.744C183.557 51.3707 183.786 50.88 183.893 50.272C184 49.664 184.053 48.912 184.053 48.016ZM199.675 50.832C199.675 51.3653 199.542 51.8667 199.275 52.336C199.019 52.8053 198.635 53.2 198.123 53.52C197.622 53.84 197.025 54.032 196.331 54.096V55.392H195.291V54.096C194.289 54 193.478 53.6853 192.859 53.152C192.241 52.6187 191.931 51.9147 191.931 51.04H193.883C193.915 51.456 194.049 51.8027 194.283 52.08C194.518 52.3467 194.854 52.5173 195.291 52.592V49.072C194.577 48.8907 193.995 48.7093 193.547 48.528C193.099 48.336 192.715 48.0373 192.395 47.632C192.086 47.2267 191.931 46.672 191.931 45.968C191.931 45.0827 192.241 44.352 192.859 43.776C193.478 43.1893 194.289 42.848 195.291 42.752V41.456H196.331V42.752C197.27 42.8373 198.022 43.136 198.587 43.648C199.163 44.1493 199.489 44.8427 199.563 45.728H197.611C197.579 45.3973 197.451 45.104 197.227 44.848C197.003 44.5813 196.705 44.4 196.331 44.304V47.76C197.046 47.9307 197.627 48.112 198.075 48.304C198.523 48.4853 198.902 48.7787 199.211 49.184C199.521 49.5787 199.675 50.128 199.675 50.832ZM193.787 45.872C193.787 46.3093 193.915 46.6507 194.171 46.896C194.438 47.1413 194.811 47.3387 195.291 47.488V44.256C194.833 44.3093 194.465 44.4747 194.187 44.752C193.921 45.0293 193.787 45.4027 193.787 45.872ZM196.331 52.592C196.801 52.5173 197.169 52.3307 197.435 52.032C197.702 51.7227 197.835 51.3547 197.835 50.928C197.835 50.5013 197.702 50.1707 197.435 49.936C197.179 49.6907 196.811 49.4933 196.331 49.344V52.592Z" fill="#898989"/>
</svg>
