<svg width="277" height="62" viewBox="0 0 277 62" fill="none" xmlns="http://www.w3.org/2000/svg">
<path d="M46.8942 23.7835C46.2404 21.759 46.5191 18.72 44.8198 16.3735C43.1071 14.0085 40.1283 13.3363 38.4462 12.1061C36.7819 10.8889 35.2335 8.2401 32.4339 7.32655C29.7133 6.43874 26.9313 7.64348 24.7742 7.64348C22.6174 7.64348 19.8355 6.43845 17.1144 7.32645C14.3153 8.23981 12.7657 10.8892 11.1024 12.1058C9.42222 13.3346 6.44119 14.0086 4.72877 16.3732C3.03087 18.7177 3.30677 21.7637 2.65413 23.7834C2.03303 25.7056 0 28.0126 0 31.0002C0 33.9897 2.03071 36.2878 2.65413 38.2169C3.30793 40.2415 3.02922 43.2805 4.72858 45.6269C6.44119 47.992 9.4199 48.6641 11.1021 49.8944C12.7662 51.1114 14.3148 53.7604 17.1144 54.6739C19.8332 55.5611 22.6196 54.3569 24.7742 54.3569C26.9258 54.3569 29.7187 55.5598 32.4339 54.674C35.2331 53.7606 36.7818 51.1118 38.4459 49.8946C40.1261 48.6658 43.1072 47.9918 44.8196 45.6272C46.5176 43.2826 46.2415 40.2369 46.8942 38.217C47.5153 36.2947 49.5483 33.9877 49.5483 31.0002C49.5483 28.011 47.5181 25.7135 46.8942 23.7835ZM43.2109 37.0267C42.4488 39.3856 42.6484 42.0255 41.6846 43.3565C40.7077 44.7053 38.1414 45.3213 36.1611 46.7698C34.2025 48.2022 32.8298 50.4728 31.2332 50.9937C29.7227 51.4867 27.2612 50.4858 24.7743 50.4858C22.2692 50.4858 19.833 51.4888 18.3153 50.9937C16.7189 50.4728 15.3481 48.2037 13.3873 46.7697C11.4188 45.33 8.8378 44.7013 7.86377 43.3563C6.90299 42.0297 7.09509 39.3716 6.33764 37.0268C5.59519 34.7295 3.87096 32.7403 3.87096 31.0002C3.87096 29.2584 5.59364 27.276 6.33745 24.9737C7.09954 22.6149 6.8999 19.9748 7.86377 18.6439C8.84003 17.296 11.4083 16.6779 13.3873 15.2306C15.3521 13.7936 16.7163 11.5284 18.3151 11.0067C19.8243 10.5143 22.2939 11.5146 24.7741 11.5146C27.2837 11.5146 29.7138 10.5109 31.2331 11.0067C32.8293 11.5275 34.2012 13.7974 36.1611 15.2307C38.1294 16.6704 40.7105 17.2991 41.6846 18.644C42.6455 19.9709 42.4524 22.6263 43.2107 24.9735V24.9736C43.9532 27.2709 45.6774 29.2601 45.6774 31.0002C45.6774 32.742 43.9547 34.7244 43.2109 37.0267ZM33.6912 24.7878C34.4471 25.5437 34.4471 26.7691 33.6912 27.525L24.0036 37.2126C23.2477 37.9685 22.0221 37.9684 21.2663 37.2126L15.8572 31.8035C15.1013 31.0476 15.1012 29.8222 15.8571 29.0664C16.613 28.3106 17.8387 28.3105 18.5943 29.0664L22.6349 33.1069L30.9539 24.7879C31.7098 24.032 32.9353 24.032 33.6912 24.7878Z" fill="#262626"/>
<path d="M90.04 8.04L86.14 22H82.84L80.22 12.06L77.48 22L74.2 22.02L70.44 8.04H73.44L75.9 18.88L78.74 8.04H81.86L84.54 18.82L87.02 8.04H90.04ZM91.1483 16.42C91.1483 15.3 91.3683 14.3067 91.8083 13.44C92.2616 12.5733 92.8683 11.9067 93.6283 11.44C94.4016 10.9733 95.2616 10.74 96.2083 10.74C97.0349 10.74 97.7549 10.9067 98.3683 11.24C98.9949 11.5733 99.4949 11.9933 99.8683 12.5V10.92H102.688V22H99.8683V20.38C99.5083 20.9 99.0083 21.3333 98.3683 21.68C97.7416 22.0133 97.0149 22.18 96.1883 22.18C95.2549 22.18 94.4016 21.94 93.6283 21.46C92.8683 20.98 92.2616 20.3067 91.8083 19.44C91.3683 18.56 91.1483 17.5533 91.1483 16.42ZM99.8683 16.46C99.8683 15.78 99.7349 15.2 99.4683 14.72C99.2016 14.2267 98.8416 13.8533 98.3883 13.6C97.9349 13.3333 97.4483 13.2 96.9283 13.2C96.4083 13.2 95.9283 13.3267 95.4883 13.58C95.0483 13.8333 94.6883 14.2067 94.4083 14.7C94.1416 15.18 94.0083 15.7533 94.0083 16.42C94.0083 17.0867 94.1416 17.6733 94.4083 18.18C94.6883 18.6733 95.0483 19.0533 95.4883 19.32C95.9416 19.5867 96.4216 19.72 96.9283 19.72C97.4483 19.72 97.9349 19.5933 98.3883 19.34C98.8416 19.0733 99.2016 18.7 99.4683 18.22C99.7349 17.7267 99.8683 17.14 99.8683 16.46ZM108.223 12.64C108.583 12.0533 109.05 11.5933 109.623 11.26C110.21 10.9267 110.876 10.76 111.623 10.76V13.7H110.883C110.003 13.7 109.336 13.9067 108.883 14.32C108.443 14.7333 108.223 15.4533 108.223 16.48V22H105.423V10.92H108.223V12.64ZM116.309 12.64C116.669 12.0533 117.136 11.5933 117.709 11.26C118.296 10.9267 118.962 10.76 119.709 10.76V13.7H118.969C118.089 13.7 117.422 13.9067 116.969 14.32C116.529 14.7333 116.309 15.4533 116.309 16.48V22H113.509V10.92H116.309V12.64ZM120.875 16.42C120.875 15.3 121.095 14.3067 121.535 13.44C121.988 12.5733 122.595 11.9067 123.355 11.44C124.128 10.9733 124.988 10.74 125.935 10.74C126.762 10.74 127.482 10.9067 128.095 11.24C128.722 11.5733 129.222 11.9933 129.595 12.5V10.92H132.415V22H129.595V20.38C129.235 20.9 128.735 21.3333 128.095 21.68C127.468 22.0133 126.742 22.18 125.915 22.18C124.982 22.18 124.128 21.94 123.355 21.46C122.595 20.98 121.988 20.3067 121.535 19.44C121.095 18.56 120.875 17.5533 120.875 16.42ZM129.595 16.46C129.595 15.78 129.462 15.2 129.195 14.72C128.928 14.2267 128.568 13.8533 128.115 13.6C127.662 13.3333 127.175 13.2 126.655 13.2C126.135 13.2 125.655 13.3267 125.215 13.58C124.775 13.8333 124.415 14.2067 124.135 14.7C123.868 15.18 123.735 15.7533 123.735 16.42C123.735 17.0867 123.868 17.6733 124.135 18.18C124.415 18.6733 124.775 19.0533 125.215 19.32C125.668 19.5867 126.148 19.72 126.655 19.72C127.175 19.72 127.662 19.5933 128.115 19.34C128.568 19.0733 128.928 18.7 129.195 18.22C129.462 17.7267 129.595 17.14 129.595 16.46ZM141.29 10.76C142.61 10.76 143.676 11.18 144.49 12.02C145.303 12.8467 145.71 14.0067 145.71 15.5V22H142.91V15.88C142.91 15 142.69 14.3267 142.25 13.86C141.81 13.38 141.21 13.14 140.45 13.14C139.676 13.14 139.063 13.38 138.61 13.86C138.17 14.3267 137.95 15 137.95 15.88V22H135.15V10.92H137.95V12.3C138.323 11.82 138.796 11.4467 139.37 11.18C139.956 10.9 140.596 10.76 141.29 10.76ZM151.632 13.22V18.58C151.632 18.9533 151.719 19.2267 151.892 19.4C152.079 19.56 152.386 19.64 152.812 19.64H154.112V22H152.352C149.992 22 148.812 20.8533 148.812 18.56V13.22H147.492V10.92H148.812V8.18H151.632V10.92H154.112V13.22H151.632ZM166.726 10.92L159.866 27.24H156.886L159.286 21.72L154.846 10.92H157.986L160.846 18.66L163.746 10.92H166.726ZM183.181 12.36C183.181 13.1067 183.001 13.8067 182.641 14.46C182.294 15.1133 181.741 15.64 180.981 16.04C180.234 16.44 179.288 16.64 178.141 16.64H175.801V22H173.001V8.04H178.141C179.221 8.04 180.141 8.22667 180.901 8.6C181.661 8.97333 182.228 9.48667 182.601 10.14C182.988 10.7933 183.181 11.5333 183.181 12.36ZM178.021 14.38C178.794 14.38 179.368 14.2067 179.741 13.86C180.114 13.5 180.301 13 180.301 12.36C180.301 11 179.541 10.32 178.021 10.32H175.801V14.38H178.021ZM187.969 12.64C188.329 12.0533 188.796 11.5933 189.369 11.26C189.956 10.9267 190.622 10.76 191.369 10.76V13.7H190.629C189.749 13.7 189.082 13.9067 188.629 14.32C188.189 14.7333 187.969 15.4533 187.969 16.48V22H185.169V10.92H187.969V12.64ZM198.175 22.18C197.108 22.18 196.148 21.9467 195.295 21.48C194.442 21 193.768 20.3267 193.275 19.46C192.795 18.5933 192.555 17.5933 192.555 16.46C192.555 15.3267 192.802 14.3267 193.295 13.46C193.802 12.5933 194.488 11.9267 195.355 11.46C196.222 10.98 197.188 10.74 198.255 10.74C199.322 10.74 200.288 10.98 201.155 11.46C202.022 11.9267 202.702 12.5933 203.195 13.46C203.702 14.3267 203.955 15.3267 203.955 16.46C203.955 17.5933 203.695 18.5933 203.175 19.46C202.668 20.3267 201.975 21 201.095 21.48C200.228 21.9467 199.255 22.18 198.175 22.18ZM198.175 19.74C198.682 19.74 199.155 19.62 199.595 19.38C200.048 19.1267 200.408 18.7533 200.675 18.26C200.942 17.7667 201.075 17.1667 201.075 16.46C201.075 15.4067 200.795 14.6 200.235 14.04C199.688 13.4667 199.015 13.18 198.215 13.18C197.415 13.18 196.742 13.4667 196.195 14.04C195.662 14.6 195.395 15.4067 195.395 16.46C195.395 17.5133 195.655 18.3267 196.175 18.9C196.708 19.46 197.375 19.74 198.175 19.74ZM209.269 13.22V18.58C209.269 18.9533 209.356 19.2267 209.529 19.4C209.716 19.56 210.022 19.64 210.449 19.64H211.749V22H209.989C207.629 22 206.449 20.8533 206.449 18.56V13.22H205.129V10.92H206.449V8.18H209.269V10.92H211.749V13.22H209.269ZM224.063 16.22C224.063 16.62 224.036 16.98 223.983 17.3H215.883C215.949 18.1 216.229 18.7267 216.723 19.18C217.216 19.6333 217.823 19.86 218.543 19.86C219.583 19.86 220.323 19.4133 220.763 18.52H223.783C223.463 19.5867 222.849 20.4667 221.943 21.16C221.036 21.84 219.923 22.18 218.603 22.18C217.536 22.18 216.576 21.9467 215.723 21.48C214.883 21 214.223 20.3267 213.743 19.46C213.276 18.5933 213.043 17.5933 213.043 16.46C213.043 15.3133 213.276 14.3067 213.743 13.44C214.209 12.5733 214.863 11.9067 215.703 11.44C216.543 10.9733 217.509 10.74 218.603 10.74C219.656 10.74 220.596 10.9667 221.423 11.42C222.263 11.8733 222.909 12.52 223.363 13.36C223.829 14.1867 224.063 15.14 224.063 16.22ZM221.163 15.42C221.149 14.7 220.889 14.1267 220.383 13.7C219.876 13.26 219.256 13.04 218.523 13.04C217.829 13.04 217.243 13.2533 216.763 13.68C216.296 14.0933 216.009 14.6733 215.903 15.42H221.163ZM225.387 16.46C225.387 15.3133 225.62 14.3133 226.087 13.46C226.553 12.5933 227.2 11.9267 228.027 11.46C228.853 10.98 229.8 10.74 230.867 10.74C232.24 10.74 233.373 11.0867 234.267 11.78C235.173 12.46 235.78 13.42 236.087 14.66H233.067C232.907 14.18 232.633 13.8067 232.247 13.54C231.873 13.26 231.407 13.12 230.847 13.12C230.047 13.12 229.413 13.4133 228.947 14C228.48 14.5733 228.247 15.3933 228.247 16.46C228.247 17.5133 228.48 18.3333 228.947 18.92C229.413 19.4933 230.047 19.78 230.847 19.78C231.98 19.78 232.72 19.2733 233.067 18.26H236.087C235.78 19.46 235.173 20.4133 234.267 21.12C233.36 21.8267 232.227 22.18 230.867 22.18C229.8 22.18 228.853 21.9467 228.027 21.48C227.2 21 226.553 20.3333 226.087 19.48C225.62 18.6133 225.387 17.6067 225.387 16.46ZM241.398 13.22V18.58C241.398 18.9533 241.484 19.2267 241.658 19.4C241.844 19.56 242.151 19.64 242.578 19.64H243.878V22H242.118C239.758 22 238.578 20.8533 238.578 18.56V13.22H237.258V10.92H238.578V8.18H241.398V10.92H243.878V13.22H241.398ZM247.312 9.6C246.818 9.6 246.405 9.44667 246.072 9.14C245.752 8.82 245.592 8.42667 245.592 7.96C245.592 7.49333 245.752 7.10667 246.072 6.8C246.405 6.48 246.818 6.32 247.312 6.32C247.805 6.32 248.212 6.48 248.532 6.8C248.865 7.10667 249.032 7.49333 249.032 7.96C249.032 8.42667 248.865 8.82 248.532 9.14C248.212 9.44667 247.805 9.6 247.312 9.6ZM248.692 10.92V22H245.892V10.92H248.692ZM256.378 22.18C255.311 22.18 254.351 21.9467 253.498 21.48C252.645 21 251.971 20.3267 251.478 19.46C250.998 18.5933 250.758 17.5933 250.758 16.46C250.758 15.3267 251.005 14.3267 251.498 13.46C252.005 12.5933 252.691 11.9267 253.558 11.46C254.425 10.98 255.391 10.74 256.458 10.74C257.525 10.74 258.491 10.98 259.358 11.46C260.225 11.9267 260.905 12.5933 261.398 13.46C261.905 14.3267 262.158 15.3267 262.158 16.46C262.158 17.5933 261.898 18.5933 261.378 19.46C260.871 20.3267 260.178 21 259.298 21.48C258.431 21.9467 257.458 22.18 256.378 22.18ZM256.378 19.74C256.885 19.74 257.358 19.62 257.798 19.38C258.251 19.1267 258.611 18.7533 258.878 18.26C259.145 17.7667 259.278 17.1667 259.278 16.46C259.278 15.4067 258.998 14.6 258.438 14.04C257.891 13.4667 257.218 13.18 256.418 13.18C255.618 13.18 254.945 13.4667 254.398 14.04C253.865 14.6 253.598 15.4067 253.598 16.46C253.598 17.5133 253.858 18.3267 254.378 18.9C254.911 19.46 255.578 19.74 256.378 19.74ZM270.352 10.76C271.672 10.76 272.739 11.18 273.552 12.02C274.365 12.8467 274.772 14.0067 274.772 15.5V22H271.972V15.88C271.972 15 271.752 14.3267 271.312 13.86C270.872 13.38 270.272 13.14 269.512 13.14C268.739 13.14 268.125 13.38 267.672 13.86C267.232 14.3267 267.012 15 267.012 15.88V22H264.212V10.92H267.012V12.3C267.385 11.82 267.859 11.4467 268.432 11.18C269.019 10.9 269.659 10.76 270.352 10.76Z" fill="#262626"/>
<path d="M76.272 54.112C75.2373 54.112 74.2827 53.872 73.408 53.392C72.544 52.9013 71.856 52.224 71.344 51.36C70.8427 50.4853 70.592 49.504 70.592 48.416C70.592 47.328 70.8427 46.352 71.344 45.488C71.856 44.624 72.544 43.952 73.408 43.472C74.2827 42.9813 75.2373 42.736 76.272 42.736C77.3173 42.736 78.272 42.9813 79.136 43.472C80.0107 43.952 80.6987 44.624 81.2 45.488C81.7013 46.352 81.952 47.328 81.952 48.416C81.952 49.504 81.7013 50.4853 81.2 51.36C80.6987 52.224 80.0107 52.9013 79.136 53.392C78.272 53.872 77.3173 54.112 76.272 54.112ZM76.272 52.528C77.008 52.528 77.664 52.3627 78.24 52.032C78.816 51.6907 79.264 51.2107 79.584 50.592C79.9147 49.9627 80.08 49.2373 80.08 48.416C80.08 47.5947 79.9147 46.8747 79.584 46.256C79.264 45.6373 78.816 45.1627 78.24 44.832C77.664 44.5013 77.008 44.336 76.272 44.336C75.536 44.336 74.88 44.5013 74.304 44.832C73.728 45.1627 73.2747 45.6373 72.944 46.256C72.624 46.8747 72.464 47.5947 72.464 48.416C72.464 49.2373 72.624 49.9627 72.944 50.592C73.2747 51.2107 73.728 51.6907 74.304 52.032C74.88 52.3627 75.536 52.528 76.272 52.528ZM87.1549 52.368L89.6509 45.184H91.5869L88.2269 54H86.0509L82.7069 45.184H84.6589L87.1549 52.368ZM101.046 49.376C101.046 49.7067 101.024 50.0053 100.982 50.272H94.2456C94.299 50.976 94.5603 51.5413 95.0296 51.968C95.499 52.3947 96.075 52.608 96.7576 52.608C97.739 52.608 98.4323 52.1973 98.8376 51.376H100.806C100.539 52.1867 100.054 52.8533 99.3496 53.376C98.6563 53.888 97.7923 54.144 96.7576 54.144C95.915 54.144 95.1576 53.9573 94.4856 53.584C93.8243 53.2 93.3016 52.6667 92.9176 51.984C92.5443 51.2907 92.3576 50.4907 92.3576 49.584C92.3576 48.6773 92.539 47.8827 92.9016 47.2C93.275 46.5067 93.7923 45.9733 94.4536 45.6C95.1256 45.2267 95.8936 45.04 96.7576 45.04C97.5896 45.04 98.331 45.2213 98.9816 45.584C99.6323 45.9467 100.139 46.4587 100.502 47.12C100.864 47.7707 101.046 48.5227 101.046 49.376ZM99.1416 48.8C99.131 48.128 98.891 47.5893 98.4216 47.184C97.9523 46.7787 97.371 46.576 96.6776 46.576C96.0483 46.576 95.5096 46.7787 95.0616 47.184C94.6136 47.5787 94.347 48.1173 94.2616 48.8H99.1416ZM104.665 46.464C104.931 46.016 105.283 45.6693 105.721 45.424C106.169 45.168 106.697 45.04 107.305 45.04V46.928H106.841C106.126 46.928 105.582 47.1093 105.209 47.472C104.846 47.8347 104.665 48.464 104.665 49.36V54H102.841V45.184H104.665V46.464ZM113.906 51.52C114.93 50.6347 115.735 49.9093 116.322 49.344C116.919 48.768 117.415 48.1707 117.81 47.552C118.204 46.9333 118.402 46.3147 118.402 45.696C118.402 45.056 118.247 44.5547 117.938 44.192C117.639 43.8293 117.164 43.648 116.514 43.648C115.884 43.648 115.394 43.8507 115.042 44.256C114.7 44.6507 114.519 45.184 114.498 45.856H112.738C112.77 44.64 113.132 43.712 113.826 43.072C114.53 42.4213 115.42 42.096 116.498 42.096C117.66 42.096 118.567 42.416 119.218 43.056C119.879 43.696 120.21 44.5493 120.21 45.616C120.21 46.384 120.012 47.1253 119.618 47.84C119.234 48.544 118.77 49.1787 118.226 49.744C117.692 50.2987 117.01 50.944 116.178 51.68L115.458 52.32H120.53V53.84H112.754V52.512L113.906 51.52ZM134.464 45.184L129.056 58.144H127.168L128.96 53.856L125.488 45.184H127.52L130 51.904L132.576 45.184H134.464ZM143.921 49.376C143.921 49.7067 143.899 50.0053 143.857 50.272H137.121C137.174 50.976 137.435 51.5413 137.905 51.968C138.374 52.3947 138.95 52.608 139.633 52.608C140.614 52.608 141.307 52.1973 141.713 51.376H143.681C143.414 52.1867 142.929 52.8533 142.225 53.376C141.531 53.888 140.667 54.144 139.633 54.144C138.79 54.144 138.033 53.9573 137.361 53.584C136.699 53.2 136.177 52.6667 135.793 51.984C135.419 51.2907 135.233 50.4907 135.233 49.584C135.233 48.6773 135.414 47.8827 135.777 47.2C136.15 46.5067 136.667 45.9733 137.329 45.6C138.001 45.2267 138.769 45.04 139.633 45.04C140.465 45.04 141.206 45.2213 141.857 45.584C142.507 45.9467 143.014 46.4587 143.377 47.12C143.739 47.7707 143.921 48.5227 143.921 49.376ZM142.017 48.8C142.006 48.128 141.766 47.5893 141.297 47.184C140.827 46.7787 140.246 46.576 139.553 46.576C138.923 46.576 138.385 46.7787 137.937 47.184C137.489 47.5787 137.222 48.1173 137.137 48.8H142.017ZM145.108 49.552C145.108 48.6667 145.289 47.8827 145.652 47.2C146.025 46.5173 146.526 45.9893 147.156 45.616C147.796 45.232 148.5 45.04 149.268 45.04C149.961 45.04 150.564 45.1787 151.076 45.456C151.598 45.7227 152.014 46.0587 152.324 46.464V45.184H154.164V54H152.324V52.688C152.014 53.104 151.593 53.4507 151.06 53.728C150.526 54.0053 149.918 54.144 149.236 54.144C148.478 54.144 147.785 53.952 147.156 53.568C146.526 53.1733 146.025 52.6293 145.652 51.936C145.289 51.232 145.108 50.4373 145.108 49.552ZM152.324 49.584C152.324 48.976 152.196 48.448 151.94 48C151.694 47.552 151.369 47.2107 150.964 46.976C150.558 46.7413 150.121 46.624 149.652 46.624C149.182 46.624 148.745 46.7413 148.34 46.976C147.934 47.2 147.604 47.536 147.348 47.984C147.102 48.4213 146.98 48.944 146.98 49.552C146.98 50.16 147.102 50.6933 147.348 51.152C147.604 51.6107 147.934 51.9627 148.34 52.208C148.756 52.4427 149.193 52.56 149.652 52.56C150.121 52.56 150.558 52.4427 150.964 52.208C151.369 51.9733 151.694 51.632 151.94 51.184C152.196 50.7253 152.324 50.192 152.324 49.584ZM158.383 46.464C158.65 46.016 159.002 45.6693 159.439 45.424C159.887 45.168 160.415 45.04 161.023 45.04V46.928H160.559C159.845 46.928 159.301 47.1093 158.927 47.472C158.565 47.8347 158.383 48.464 158.383 49.36V54H156.559V45.184H158.383V46.464ZM165.9 54.144C165.207 54.144 164.583 54.0213 164.028 53.776C163.484 53.52 163.052 53.1787 162.732 52.752C162.412 52.3147 162.241 51.8293 162.22 51.296H164.108C164.14 51.6693 164.316 51.984 164.636 52.24C164.967 52.4853 165.377 52.608 165.868 52.608C166.38 52.608 166.775 52.512 167.052 52.32C167.34 52.1173 167.484 51.8613 167.484 51.552C167.484 51.2213 167.324 50.976 167.004 50.816C166.695 50.656 166.199 50.48 165.516 50.288C164.855 50.1067 164.316 49.9307 163.9 49.76C163.484 49.5893 163.121 49.328 162.812 48.976C162.513 48.624 162.364 48.16 162.364 47.584C162.364 47.1147 162.503 46.688 162.78 46.304C163.057 45.9093 163.452 45.6 163.964 45.376C164.487 45.152 165.084 45.04 165.756 45.04C166.759 45.04 167.564 45.296 168.172 45.808C168.791 46.3093 169.121 46.9973 169.164 47.872H167.34C167.308 47.4773 167.148 47.1627 166.86 46.928C166.572 46.6933 166.183 46.576 165.692 46.576C165.212 46.576 164.844 46.6667 164.588 46.848C164.332 47.0293 164.204 47.2693 164.204 47.568C164.204 47.8027 164.289 48 164.46 48.16C164.631 48.32 164.839 48.448 165.084 48.544C165.329 48.6293 165.692 48.7413 166.172 48.88C166.812 49.0507 167.335 49.2267 167.74 49.408C168.156 49.5787 168.513 49.8347 168.812 50.176C169.111 50.5173 169.265 50.9707 169.276 51.536C169.276 52.0373 169.137 52.4853 168.86 52.88C168.583 53.2747 168.188 53.584 167.676 53.808C167.175 54.032 166.583 54.144 165.9 54.144Z" fill="#898989"/>
</svg>
