<svg width="214" height="62" viewBox="0 0 214 62" fill="none" xmlns="http://www.w3.org/2000/svg">
<path d="M40.9314 26.1703C40.6159 15.546 31.8759 7 21.1765 7C10.4771 7 1.73704 15.546 1.42146 26.1703L0 27.5917V37.2318L1.41176 38.6436V45.2118C1.41176 49.0521 4.53609 52.1765 8.37647 52.1765H10.1252C10.708 53.8197 12.2772 55 14.1176 55H16.9412C18.7829 55 20.3529 53.818 20.9348 52.1731C21.0154 52.1745 21.0963 52.1765 21.1765 52.1765C27.9942 52.1765 33.6986 47.3185 35.0103 40.8824H38.7024L42.3529 37.2318V27.5917L40.9314 26.1703ZM21.1765 9.82353C29.5559 9.82353 36.5328 15.9392 37.881 23.9412H35.0103C33.6986 17.505 27.9942 12.6471 21.1765 12.6471C14.3588 12.6471 8.65431 17.505 7.34268 23.9412H4.47191C5.82014 15.9392 12.7971 9.82353 21.1765 9.82353ZM32.1132 23.9412C27.5496 23.9275 24.326 24.2055 21.6683 20.3205L20.3778 18.4341L19.2687 20.4326C17.6527 23.3445 15.4764 23.9412 12.7059 23.9412H10.2397C11.4967 19.0755 15.9235 15.4706 21.1765 15.4706C26.4295 15.4706 30.8563 19.0755 32.1132 23.9412ZM7.05882 38.0588H4.82005L2.82353 36.0623V28.7612L4.82005 26.7647H7.05882V38.0588ZM4.23529 45.2118V40.8824H7.33995C7.87144 43.5153 9.14306 45.9321 11.0269 47.8733C10.632 48.2952 10.3223 48.7974 10.1252 49.3529H8.37647C6.09299 49.3529 4.23529 47.4952 4.23529 45.2118ZM16.9412 52.1765H14.1176C13.3391 52.1765 12.7059 51.5432 12.7059 50.7647C12.7059 49.9863 13.3391 49.3529 14.1176 49.3529H16.9412C17.7196 49.3529 18.3529 49.9863 18.3529 50.7647C18.3529 51.5432 17.7196 52.1765 16.9412 52.1765ZM32.4706 38.0588C32.4706 44.2864 27.404 49.3529 21.1765 49.3529C21.0955 49.3529 21.0139 49.3513 20.9324 49.3495C20.3487 47.708 18.7803 46.5294 16.9412 46.5294C14.0424 46.5358 14.0886 46.5149 13.7272 46.5481C11.2762 44.3998 9.88235 41.3399 9.88235 38.0588V26.7647H12.7059C15.2044 26.7647 18.2472 26.3528 20.6026 23.4861C23.7104 26.7429 27.5082 26.7647 30.9175 26.7647H32.4706V38.0588ZM39.5294 36.0623L37.5329 38.0588H35.2941V26.7647H37.5329L39.5294 28.7612V36.0623Z" fill="#262626"/>
<path d="M64.293 18.84C65.573 17.7733 66.593 16.8867 67.353 16.18C68.113 15.46 68.7464 14.7133 69.253 13.94C69.7597 13.1667 70.013 12.4067 70.013 11.66C70.013 10.98 69.853 10.4467 69.533 10.06C69.213 9.67333 68.7197 9.48 68.053 9.48C67.3864 9.48 66.873 9.70667 66.513 10.16C66.153 10.6 65.9664 11.2067 65.953 11.98H63.233C63.2864 10.38 63.7597 9.16667 64.653 8.34C65.5597 7.51333 66.7064 7.1 68.093 7.1C69.613 7.1 70.7797 7.50667 71.593 8.32C72.4064 9.12 72.813 10.18 72.813 11.5C72.813 12.54 72.533 13.5333 71.973 14.48C71.413 15.4267 70.773 16.2533 70.053 16.96C69.333 17.6533 68.393 18.4933 67.233 19.48H73.133V21.8H63.253V19.72L64.293 18.84ZM74.7774 19.16V16.96L81.3174 7.6H84.5774V16.72H86.3374V19.16H84.5774V22H81.7774V19.16H74.7774ZM81.9574 10.6L77.8574 16.72H81.9574V10.6ZM100.706 3.06L95.3057 25.62H92.5657L97.9657 3.06H100.706ZM116.658 9.54L111.338 22H108.498L113.858 9.86H107.018V7.46H116.658V9.54ZM128.241 22.14C127.267 22.14 126.387 21.9733 125.601 21.64C124.827 21.3067 124.214 20.8267 123.761 20.2C123.307 19.5733 123.074 18.8333 123.061 17.98H126.061C126.101 18.5533 126.301 19.0067 126.661 19.34C127.034 19.6733 127.541 19.84 128.181 19.84C128.834 19.84 129.347 19.6867 129.721 19.38C130.094 19.06 130.281 18.6467 130.281 18.14C130.281 17.7267 130.154 17.3867 129.901 17.12C129.647 16.8533 129.327 16.6467 128.941 16.5C128.567 16.34 128.047 16.1667 127.381 15.98C126.474 15.7133 125.734 15.4533 125.161 15.2C124.601 14.9333 124.114 14.54 123.701 14.02C123.301 13.4867 123.101 12.78 123.101 11.9C123.101 11.0733 123.307 10.3533 123.721 9.74C124.134 9.12667 124.714 8.66 125.461 8.34C126.207 8.00667 127.061 7.84 128.021 7.84C129.461 7.84 130.627 8.19333 131.521 8.9C132.427 9.59333 132.927 10.5667 133.021 11.82H129.941C129.914 11.34 129.707 10.9467 129.321 10.64C128.947 10.32 128.447 10.16 127.821 10.16C127.274 10.16 126.834 10.3 126.501 10.58C126.181 10.86 126.021 11.2667 126.021 11.8C126.021 12.1733 126.141 12.4867 126.381 12.74C126.634 12.98 126.941 13.18 127.301 13.34C127.674 13.4867 128.194 13.66 128.861 13.86C129.767 14.1267 130.507 14.3933 131.081 14.66C131.654 14.9267 132.147 15.3267 132.561 15.86C132.974 16.3933 133.181 17.0933 133.181 17.96C133.181 18.7067 132.987 19.4 132.601 20.04C132.214 20.68 131.647 21.1933 130.901 21.58C130.154 21.9533 129.267 22.14 128.241 22.14ZM146.068 10.92V22H143.248V20.6C142.888 21.08 142.415 21.46 141.828 21.74C141.255 22.0067 140.628 22.14 139.948 22.14C139.081 22.14 138.315 21.96 137.648 21.6C136.981 21.2267 136.455 20.6867 136.068 19.98C135.695 19.26 135.508 18.4067 135.508 17.42V10.92H138.308V17.02C138.308 17.9 138.528 18.58 138.968 19.06C139.408 19.5267 140.008 19.76 140.768 19.76C141.541 19.76 142.148 19.5267 142.588 19.06C143.028 18.58 143.248 17.9 143.248 17.02V10.92H146.068ZM151.631 12.52C151.991 12.0133 152.484 11.5933 153.111 11.26C153.751 10.9133 154.477 10.74 155.291 10.74C156.237 10.74 157.091 10.9733 157.851 11.44C158.624 11.9067 159.231 12.5733 159.671 13.44C160.124 14.2933 160.351 15.2867 160.351 16.42C160.351 17.5533 160.124 18.56 159.671 19.44C159.231 20.3067 158.624 20.98 157.851 21.46C157.091 21.94 156.237 22.18 155.291 22.18C154.477 22.18 153.757 22.0133 153.131 21.68C152.517 21.3467 152.017 20.9267 151.631 20.42V27.28H148.831V10.92H151.631V12.52ZM157.491 16.42C157.491 15.7533 157.351 15.18 157.071 14.7C156.804 14.2067 156.444 13.8333 155.991 13.58C155.551 13.3267 155.071 13.2 154.551 13.2C154.044 13.2 153.564 13.3333 153.111 13.6C152.671 13.8533 152.311 14.2267 152.031 14.72C151.764 15.2133 151.631 15.7933 151.631 16.46C151.631 17.1267 151.764 17.7067 152.031 18.2C152.311 18.6933 152.671 19.0733 153.111 19.34C153.564 19.5933 154.044 19.72 154.551 19.72C155.071 19.72 155.551 19.5867 155.991 19.32C156.444 19.0533 156.804 18.6733 157.071 18.18C157.351 17.6867 157.491 17.1 157.491 16.42ZM165.185 12.52C165.545 12.0133 166.039 11.5933 166.665 11.26C167.305 10.9133 168.032 10.74 168.845 10.74C169.792 10.74 170.645 10.9733 171.405 11.44C172.179 11.9067 172.785 12.5733 173.225 13.44C173.679 14.2933 173.905 15.2867 173.905 16.42C173.905 17.5533 173.679 18.56 173.225 19.44C172.785 20.3067 172.179 20.98 171.405 21.46C170.645 21.94 169.792 22.18 168.845 22.18C168.032 22.18 167.312 22.0133 166.685 21.68C166.072 21.3467 165.572 20.9267 165.185 20.42V27.28H162.385V10.92H165.185V12.52ZM171.045 16.42C171.045 15.7533 170.905 15.18 170.625 14.7C170.359 14.2067 169.999 13.8333 169.545 13.58C169.105 13.3267 168.625 13.2 168.105 13.2C167.599 13.2 167.119 13.3333 166.665 13.6C166.225 13.8533 165.865 14.2267 165.585 14.72C165.319 15.2133 165.185 15.7933 165.185 16.46C165.185 17.1267 165.319 17.7067 165.585 18.2C165.865 18.6933 166.225 19.0733 166.665 19.34C167.119 19.5933 167.599 19.72 168.105 19.72C168.625 19.72 169.105 19.5867 169.545 19.32C169.999 19.0533 170.359 18.6733 170.625 18.18C170.905 17.6867 171.045 17.1 171.045 16.42ZM180.86 22.18C179.793 22.18 178.833 21.9467 177.98 21.48C177.127 21 176.453 20.3267 175.96 19.46C175.48 18.5933 175.24 17.5933 175.24 16.46C175.24 15.3267 175.487 14.3267 175.98 13.46C176.487 12.5933 177.173 11.9267 178.04 11.46C178.907 10.98 179.873 10.74 180.94 10.74C182.007 10.74 182.973 10.98 183.84 11.46C184.707 11.9267 185.387 12.5933 185.88 13.46C186.387 14.3267 186.64 15.3267 186.64 16.46C186.64 17.5933 186.38 18.5933 185.86 19.46C185.353 20.3267 184.66 21 183.78 21.48C182.913 21.9467 181.94 22.18 180.86 22.18ZM180.86 19.74C181.367 19.74 181.84 19.62 182.28 19.38C182.733 19.1267 183.093 18.7533 183.36 18.26C183.627 17.7667 183.76 17.1667 183.76 16.46C183.76 15.4067 183.48 14.6 182.92 14.04C182.373 13.4667 181.7 13.18 180.9 13.18C180.1 13.18 179.427 13.4667 178.88 14.04C178.347 14.6 178.08 15.4067 178.08 16.46C178.08 17.5133 178.34 18.3267 178.86 18.9C179.393 19.46 180.06 19.74 180.86 19.74ZM191.494 12.64C191.854 12.0533 192.321 11.5933 192.894 11.26C193.481 10.9267 194.147 10.76 194.894 10.76V13.7H194.154C193.274 13.7 192.607 13.9067 192.154 14.32C191.714 14.7333 191.494 15.4533 191.494 16.48V22H188.694V10.92H191.494V12.64ZM200.04 13.22V18.58C200.04 18.9533 200.127 19.2267 200.3 19.4C200.487 19.56 200.793 19.64 201.22 19.64H202.52V22H200.76C198.4 22 197.22 20.8533 197.22 18.56V13.22H195.9V10.92H197.22V8.18H200.04V10.92H202.52V13.22H200.04Z" fill="#262626"/>
<path d="M67.185 42.88C68.369 42.88 69.4037 43.1093 70.289 43.568C71.185 44.016 71.873 44.6667 72.353 45.52C72.8437 46.3627 73.089 47.3493 73.089 48.48C73.089 49.6107 72.8437 50.592 72.353 51.424C71.873 52.256 71.185 52.896 70.289 53.344C69.4037 53.7813 68.369 54 67.185 54H63.553V42.88H67.185ZM67.185 52.512C68.4864 52.512 69.4837 52.16 70.177 51.456C70.8704 50.752 71.217 49.76 71.217 48.48C71.217 47.1893 70.8704 46.1813 70.177 45.456C69.4837 44.7307 68.4864 44.368 67.185 44.368H65.377V52.512H67.185ZM82.9768 49.376C82.9768 49.7067 82.9554 50.0053 82.9128 50.272H76.1768C76.2301 50.976 76.4914 51.5413 76.9608 51.968C77.4301 52.3947 78.0061 52.608 78.6888 52.608C79.6701 52.608 80.3634 52.1973 80.7688 51.376H82.7368C82.4701 52.1867 81.9848 52.8533 81.2808 53.376C80.5874 53.888 79.7234 54.144 78.6888 54.144C77.8461 54.144 77.0888 53.9573 76.4168 53.584C75.7554 53.2 75.2328 52.6667 74.8488 51.984C74.4754 51.2907 74.2888 50.4907 74.2888 49.584C74.2888 48.6773 74.4701 47.8827 74.8328 47.2C75.2061 46.5067 75.7234 45.9733 76.3848 45.6C77.0568 45.2267 77.8248 45.04 78.6888 45.04C79.5208 45.04 80.2621 45.2213 80.9128 45.584C81.5634 45.9467 82.0701 46.4587 82.4328 47.12C82.7954 47.7707 82.9768 48.5227 82.9768 49.376ZM81.0728 48.8C81.0621 48.128 80.8221 47.5893 80.3528 47.184C79.8834 46.7787 79.3021 46.576 78.6088 46.576C77.9794 46.576 77.4408 46.7787 76.9928 47.184C76.5448 47.5787 76.2781 48.1173 76.1928 48.8H81.0728ZM84.1638 49.552C84.1638 48.6667 84.3451 47.8827 84.7078 47.2C85.0811 46.5173 85.5824 45.9893 86.2118 45.616C86.8518 45.232 87.5611 45.04 88.3398 45.04C88.9158 45.04 89.4811 45.168 90.0358 45.424C90.6011 45.6693 91.0491 46 91.3798 46.416V42.16H93.2198V54H91.3798V52.672C91.0811 53.0987 90.6651 53.4507 90.1318 53.728C89.6091 54.0053 89.0064 54.144 88.3238 54.144C87.5558 54.144 86.8518 53.952 86.2118 53.568C85.5824 53.1733 85.0811 52.6293 84.7078 51.936C84.3451 51.232 84.1638 50.4373 84.1638 49.552ZM91.3798 49.584C91.3798 48.976 91.2518 48.448 90.9958 48C90.7504 47.552 90.4251 47.2107 90.0198 46.976C89.6144 46.7413 89.1771 46.624 88.7078 46.624C88.2384 46.624 87.8011 46.7413 87.3958 46.976C86.9904 47.2 86.6598 47.536 86.4038 47.984C86.1584 48.4213 86.0358 48.944 86.0358 49.552C86.0358 50.16 86.1584 50.6933 86.4038 51.152C86.6598 51.6107 86.9904 51.9627 87.3958 52.208C87.8118 52.4427 88.2491 52.56 88.7078 52.56C89.1771 52.56 89.6144 52.4427 90.0198 52.208C90.4251 51.9733 90.7504 51.632 90.9958 51.184C91.2518 50.7253 91.3798 50.192 91.3798 49.584ZM96.5435 44.016C96.2129 44.016 95.9355 43.904 95.7115 43.68C95.4875 43.456 95.3755 43.1787 95.3755 42.848C95.3755 42.5173 95.4875 42.24 95.7115 42.016C95.9355 41.792 96.2129 41.68 96.5435 41.68C96.8635 41.68 97.1355 41.792 97.3595 42.016C97.5835 42.24 97.6955 42.5173 97.6955 42.848C97.6955 43.1787 97.5835 43.456 97.3595 43.68C97.1355 43.904 96.8635 44.016 96.5435 44.016ZM97.4395 45.184V54H95.6155V45.184H97.4395ZM99.2263 49.584C99.2263 48.6773 99.4076 47.8827 99.7703 47.2C100.144 46.5067 100.656 45.9733 101.306 45.6C101.957 45.2267 102.704 45.04 103.546 45.04C104.613 45.04 105.493 45.296 106.186 45.808C106.89 46.3093 107.365 47.0293 107.61 47.968H105.642C105.482 47.5307 105.226 47.1893 104.874 46.944C104.522 46.6987 104.08 46.576 103.546 46.576C102.8 46.576 102.202 46.8427 101.754 47.376C101.317 47.8987 101.098 48.6347 101.098 49.584C101.098 50.5333 101.317 51.2747 101.754 51.808C102.202 52.3413 102.8 52.608 103.546 52.608C104.602 52.608 105.301 52.144 105.642 51.216H107.61C107.354 52.112 106.874 52.8267 106.17 53.36C105.466 53.8827 104.592 54.144 103.546 54.144C102.704 54.144 101.957 53.9573 101.306 53.584C100.656 53.2 100.144 52.6667 99.7703 51.984C99.4076 51.2907 99.2263 50.4907 99.2263 49.584ZM108.82 49.552C108.82 48.6667 109.001 47.8827 109.364 47.2C109.737 46.5173 110.239 45.9893 110.868 45.616C111.508 45.232 112.212 45.04 112.98 45.04C113.673 45.04 114.276 45.1787 114.788 45.456C115.311 45.7227 115.727 46.0587 116.036 46.464V45.184H117.876V54H116.036V52.688C115.727 53.104 115.305 53.4507 114.772 53.728C114.239 54.0053 113.631 54.144 112.948 54.144C112.191 54.144 111.497 53.952 110.868 53.568C110.239 53.1733 109.737 52.6293 109.364 51.936C109.001 51.232 108.82 50.4373 108.82 49.552ZM116.036 49.584C116.036 48.976 115.908 48.448 115.652 48C115.407 47.552 115.081 47.2107 114.676 46.976C114.271 46.7413 113.833 46.624 113.364 46.624C112.895 46.624 112.457 46.7413 112.052 46.976C111.647 47.2 111.316 47.536 111.06 47.984C110.815 48.4213 110.692 48.944 110.692 49.552C110.692 50.16 110.815 50.6933 111.06 51.152C111.316 51.6107 111.647 51.9627 112.052 52.208C112.468 52.4427 112.905 52.56 113.364 52.56C113.833 52.56 114.271 52.4427 114.676 52.208C115.081 51.9733 115.407 51.632 115.652 51.184C115.908 50.7253 116.036 50.192 116.036 49.584ZM122.4 46.672V51.552C122.4 51.8827 122.474 52.1227 122.624 52.272C122.784 52.4107 123.05 52.48 123.424 52.48H124.544V54H123.104C122.282 54 121.653 53.808 121.216 53.424C120.778 53.04 120.56 52.416 120.56 51.552V46.672H119.52V45.184H120.56V42.992H122.4V45.184H124.544V46.672H122.4ZM134.305 49.376C134.305 49.7067 134.284 50.0053 134.241 50.272H127.505C127.558 50.976 127.82 51.5413 128.289 51.968C128.758 52.3947 129.334 52.608 130.017 52.608C130.998 52.608 131.692 52.1973 132.097 51.376H134.065C133.798 52.1867 133.313 52.8533 132.609 53.376C131.916 53.888 131.052 54.144 130.017 54.144C129.174 54.144 128.417 53.9573 127.745 53.584C127.084 53.2 126.561 52.6667 126.177 51.984C125.804 51.2907 125.617 50.4907 125.617 49.584C125.617 48.6773 125.798 47.8827 126.161 47.2C126.534 46.5067 127.052 45.9733 127.713 45.6C128.385 45.2267 129.153 45.04 130.017 45.04C130.849 45.04 131.59 45.2213 132.241 45.584C132.892 45.9467 133.398 46.4587 133.761 47.12C134.124 47.7707 134.305 48.5227 134.305 49.376ZM132.401 48.8C132.39 48.128 132.15 47.5893 131.681 47.184C131.212 46.7787 130.63 46.576 129.937 46.576C129.308 46.576 128.769 46.7787 128.321 47.184C127.873 47.5787 127.606 48.1173 127.521 48.8H132.401ZM135.492 49.552C135.492 48.6667 135.673 47.8827 136.036 47.2C136.409 46.5173 136.911 45.9893 137.54 45.616C138.18 45.232 138.889 45.04 139.668 45.04C140.244 45.04 140.809 45.168 141.364 45.424C141.929 45.6693 142.377 46 142.708 46.416V42.16H144.548V54H142.708V52.672C142.409 53.0987 141.993 53.4507 141.46 53.728C140.937 54.0053 140.335 54.144 139.652 54.144C138.884 54.144 138.18 53.952 137.54 53.568C136.911 53.1733 136.409 52.6293 136.036 51.936C135.673 51.232 135.492 50.4373 135.492 49.552ZM142.708 49.584C142.708 48.976 142.58 48.448 142.324 48C142.079 47.552 141.753 47.2107 141.348 46.976C140.943 46.7413 140.505 46.624 140.036 46.624C139.567 46.624 139.129 46.7413 138.724 46.976C138.319 47.2 137.988 47.536 137.732 47.984C137.487 48.4213 137.364 48.944 137.364 49.552C137.364 50.16 137.487 50.6933 137.732 51.152C137.988 51.6107 138.319 51.9627 138.724 52.208C139.14 52.4427 139.577 52.56 140.036 52.56C140.505 52.56 140.943 52.4427 141.348 52.208C141.753 51.9733 142.079 51.632 142.324 51.184C142.58 50.7253 142.708 50.192 142.708 49.584ZM154.3 54.144C153.607 54.144 152.983 54.0213 152.428 53.776C151.884 53.52 151.452 53.1787 151.132 52.752C150.812 52.3147 150.641 51.8293 150.62 51.296H152.508C152.54 51.6693 152.716 51.984 153.036 52.24C153.367 52.4853 153.777 52.608 154.268 52.608C154.78 52.608 155.175 52.512 155.452 52.32C155.74 52.1173 155.884 51.8613 155.884 51.552C155.884 51.2213 155.724 50.976 155.404 50.816C155.095 50.656 154.599 50.48 153.916 50.288C153.255 50.1067 152.716 49.9307 152.3 49.76C151.884 49.5893 151.521 49.328 151.212 48.976C150.913 48.624 150.764 48.16 150.764 47.584C150.764 47.1147 150.903 46.688 151.18 46.304C151.457 45.9093 151.852 45.6 152.364 45.376C152.887 45.152 153.484 45.04 154.156 45.04C155.159 45.04 155.964 45.296 156.572 45.808C157.191 46.3093 157.521 46.9973 157.564 47.872H155.74C155.708 47.4773 155.548 47.1627 155.26 46.928C154.972 46.6933 154.583 46.576 154.092 46.576C153.612 46.576 153.244 46.6667 152.988 46.848C152.732 47.0293 152.604 47.2693 152.604 47.568C152.604 47.8027 152.689 48 152.86 48.16C153.031 48.32 153.239 48.448 153.484 48.544C153.729 48.6293 154.092 48.7413 154.572 48.88C155.212 49.0507 155.735 49.2267 156.14 49.408C156.556 49.5787 156.913 49.8347 157.212 50.176C157.511 50.5173 157.665 50.9707 157.676 51.536C157.676 52.0373 157.537 52.4853 157.26 52.88C156.983 53.2747 156.588 53.584 156.076 53.808C155.575 54.032 154.983 54.144 154.3 54.144ZM167.631 45.184V54H165.807V52.96C165.519 53.3227 165.14 53.6107 164.671 53.824C164.212 54.0267 163.721 54.128 163.199 54.128C162.505 54.128 161.881 53.984 161.327 53.696C160.783 53.408 160.351 52.9813 160.031 52.416C159.721 51.8507 159.567 51.168 159.567 50.368V45.184H161.375V50.096C161.375 50.8853 161.572 51.4933 161.967 51.92C162.361 52.336 162.9 52.544 163.583 52.544C164.265 52.544 164.804 52.336 165.199 51.92C165.604 51.4933 165.807 50.8853 165.807 50.096V45.184H167.631ZM171.861 46.48C172.171 46.0747 172.592 45.7333 173.125 45.456C173.659 45.1787 174.261 45.04 174.933 45.04C175.701 45.04 176.4 45.232 177.029 45.616C177.669 45.9893 178.171 46.5173 178.533 47.2C178.896 47.8827 179.077 48.6667 179.077 49.552C179.077 50.4373 178.896 51.232 178.533 51.936C178.171 52.6293 177.669 53.1733 177.029 53.568C176.4 53.952 175.701 54.144 174.933 54.144C174.261 54.144 173.664 54.0107 173.141 53.744C172.619 53.4667 172.192 53.1253 171.861 52.72V58.192H170.037V45.184H171.861V46.48ZM177.221 49.552C177.221 48.944 177.093 48.4213 176.837 47.984C176.592 47.536 176.261 47.2 175.845 46.976C175.44 46.7413 175.003 46.624 174.533 46.624C174.075 46.624 173.637 46.7413 173.221 46.976C172.816 47.2107 172.485 47.552 172.229 48C171.984 48.448 171.861 48.976 171.861 49.584C171.861 50.192 171.984 50.7253 172.229 51.184C172.485 51.632 172.816 51.9733 173.221 52.208C173.637 52.4427 174.075 52.56 174.533 52.56C175.003 52.56 175.44 52.4427 175.845 52.208C176.261 51.9627 176.592 51.6107 176.837 51.152C177.093 50.6933 177.221 50.16 177.221 49.552ZM182.705 46.48C183.014 46.0747 183.436 45.7333 183.969 45.456C184.502 45.1787 185.105 45.04 185.777 45.04C186.545 45.04 187.244 45.232 187.873 45.616C188.513 45.9893 189.014 46.5173 189.377 47.2C189.74 47.8827 189.921 48.6667 189.921 49.552C189.921 50.4373 189.74 51.232 189.377 51.936C189.014 52.6293 188.513 53.1733 187.873 53.568C187.244 53.952 186.545 54.144 185.777 54.144C185.105 54.144 184.508 54.0107 183.985 53.744C183.462 53.4667 183.036 53.1253 182.705 52.72V58.192H180.881V45.184H182.705V46.48ZM188.065 49.552C188.065 48.944 187.937 48.4213 187.681 47.984C187.436 47.536 187.105 47.2 186.689 46.976C186.284 46.7413 185.846 46.624 185.377 46.624C184.918 46.624 184.481 46.7413 184.065 46.976C183.66 47.2107 183.329 47.552 183.073 48C182.828 48.448 182.705 48.976 182.705 49.584C182.705 50.192 182.828 50.7253 183.073 51.184C183.329 51.632 183.66 51.9733 184.065 52.208C184.481 52.4427 184.918 52.56 185.377 52.56C185.846 52.56 186.284 52.4427 186.689 52.208C187.105 51.9627 187.436 51.6107 187.681 51.152C187.937 50.6933 188.065 50.16 188.065 49.552ZM195.549 54.144C194.717 54.144 193.965 53.9573 193.293 53.584C192.621 53.2 192.093 52.6667 191.709 51.984C191.325 51.2907 191.133 50.4907 191.133 49.584C191.133 48.688 191.33 47.8933 191.725 47.2C192.12 46.5067 192.658 45.9733 193.341 45.6C194.024 45.2267 194.786 45.04 195.629 45.04C196.472 45.04 197.234 45.2267 197.917 45.6C198.6 45.9733 199.138 46.5067 199.533 47.2C199.928 47.8933 200.125 48.688 200.125 49.584C200.125 50.48 199.922 51.2747 199.517 51.968C199.112 52.6613 198.557 53.2 197.853 53.584C197.16 53.9573 196.392 54.144 195.549 54.144ZM195.549 52.56C196.018 52.56 196.456 52.448 196.861 52.224C197.277 52 197.613 51.664 197.869 51.216C198.125 50.768 198.253 50.224 198.253 49.584C198.253 48.944 198.13 48.4053 197.885 47.968C197.64 47.52 197.314 47.184 196.909 46.96C196.504 46.736 196.066 46.624 195.597 46.624C195.128 46.624 194.69 46.736 194.285 46.96C193.89 47.184 193.576 47.52 193.341 47.968C193.106 48.4053 192.989 48.944 192.989 49.584C192.989 50.5333 193.229 51.2693 193.709 51.792C194.2 52.304 194.813 52.56 195.549 52.56ZM203.752 46.464C204.019 46.016 204.371 45.6693 204.808 45.424C205.256 45.168 205.784 45.04 206.392 45.04V46.928H205.928C205.213 46.928 204.669 47.1093 204.296 47.472C203.933 47.8347 203.752 48.464 203.752 49.36V54H201.928V45.184H203.752V46.464ZM210.197 46.672V51.552C210.197 51.8827 210.271 52.1227 210.421 52.272C210.581 52.4107 210.847 52.48 211.221 52.48H212.341V54H210.901C210.079 54 209.45 53.808 209.013 53.424C208.575 53.04 208.357 52.416 208.357 51.552V46.672H207.317V45.184H208.357V42.992H210.197V45.184H212.341V46.672H210.197Z" fill="#898989"/>
</svg>
